<mxfile host="app.diagrams.net" modified="2023-07-31T03:49:56.026Z" agent="Mozilla/5.0 (X11; Linux x86_64; rv:109.0) Gecko/20100101 Firefox/111.0" etag="O8aFj12O1dEU7f3ueLJM" version="21.6.6" type="device">
  <diagram name="Page-1" id="eu7qMN5CvWjbm2lcWE_K">
    <mxGraphModel dx="2074" dy="1086" grid="1" gridSize="10" guides="1" tooltips="1" connect="1" arrows="1" fold="1" page="1" pageScale="1" pageWidth="850" pageHeight="1100" math="0" shadow="0">
      <root>
        <mxCell id="0" />
        <mxCell id="1" parent="0" />
        <mxCell id="fuZp-VxLnqiwLf1VORub-26" style="edgeStyle=orthogonalEdgeStyle;rounded=0;orthogonalLoop=1;jettySize=auto;html=1;entryX=0.5;entryY=1;entryDx=0;entryDy=0;" edge="1" parent="1" target="fuZp-VxLnqiwLf1VORub-25">
          <mxGeometry relative="1" as="geometry">
            <mxPoint x="470" y="710" as="sourcePoint" />
            <mxPoint x="180" y="640" as="targetPoint" />
            <Array as="points">
              <mxPoint x="180" y="710" />
            </Array>
          </mxGeometry>
        </mxCell>
        <mxCell id="fuZp-VxLnqiwLf1VORub-30" style="edgeStyle=orthogonalEdgeStyle;rounded=0;orthogonalLoop=1;jettySize=auto;html=1;entryX=0.995;entryY=0.608;entryDx=0;entryDy=0;entryPerimeter=0;" edge="1" parent="1" source="fuZp-VxLnqiwLf1VORub-1" target="fuZp-VxLnqiwLf1VORub-29">
          <mxGeometry relative="1" as="geometry">
            <Array as="points">
              <mxPoint x="560" y="943" />
            </Array>
          </mxGeometry>
        </mxCell>
        <mxCell id="fuZp-VxLnqiwLf1VORub-1" value="&lt;div&gt;Web App&lt;/div&gt;&lt;div&gt;1. User enters flight information (first name, last name, confirmation number).&amp;nbsp; This adds a message to the flight information collector queue&lt;br&gt;&lt;/div&gt;&lt;div&gt;2. User wants to see flight check-in status (gets back confirmation number, flight time, and whether or not their checked in yet).&amp;nbsp; This reads from the DB and displays the information&lt;br&gt;&lt;/div&gt;" style="rounded=1;whiteSpace=wrap;html=1;" vertex="1" parent="1">
          <mxGeometry x="470" y="670" width="190" height="200" as="geometry" />
        </mxCell>
        <mxCell id="fuZp-VxLnqiwLf1VORub-14" style="edgeStyle=orthogonalEdgeStyle;rounded=0;orthogonalLoop=1;jettySize=auto;html=1;" edge="1" parent="1" source="fuZp-VxLnqiwLf1VORub-2" target="fuZp-VxLnqiwLf1VORub-4">
          <mxGeometry relative="1" as="geometry" />
        </mxCell>
        <mxCell id="fuZp-VxLnqiwLf1VORub-23" style="edgeStyle=orthogonalEdgeStyle;rounded=0;orthogonalLoop=1;jettySize=auto;html=1;" edge="1" parent="1" source="fuZp-VxLnqiwLf1VORub-2" target="fuZp-VxLnqiwLf1VORub-22">
          <mxGeometry relative="1" as="geometry" />
        </mxCell>
        <mxCell id="fuZp-VxLnqiwLf1VORub-27" style="edgeStyle=orthogonalEdgeStyle;rounded=0;orthogonalLoop=1;jettySize=auto;html=1;" edge="1" parent="1" source="fuZp-VxLnqiwLf1VORub-2" target="fuZp-VxLnqiwLf1VORub-6">
          <mxGeometry relative="1" as="geometry">
            <Array as="points">
              <mxPoint x="440" y="830" />
            </Array>
          </mxGeometry>
        </mxCell>
        <mxCell id="fuZp-VxLnqiwLf1VORub-2" value="&lt;div&gt;Flight information collector service&lt;br&gt;&lt;/div&gt;&lt;div&gt;- Reads from flight information message queue&lt;br&gt;&lt;/div&gt;&lt;div&gt;- Then sends HTTP GET request for flight time given first name, last name, confirmation number&lt;/div&gt;&lt;div&gt;- Writes flight information to DB&lt;/div&gt;&lt;div&gt;- Adds message to check-in message queue for when a job should be scheduled&lt;br&gt;&lt;/div&gt;" style="rounded=1;whiteSpace=wrap;html=1;" vertex="1" parent="1">
          <mxGeometry x="370" y="310" width="200" height="180" as="geometry" />
        </mxCell>
        <mxCell id="fuZp-VxLnqiwLf1VORub-4" value="Southwest Airlines Flight Information API" style="rounded=1;whiteSpace=wrap;html=1;" vertex="1" parent="1">
          <mxGeometry x="660" y="370" width="120" height="60" as="geometry" />
        </mxCell>
        <mxCell id="fuZp-VxLnqiwLf1VORub-11" style="edgeStyle=orthogonalEdgeStyle;rounded=0;orthogonalLoop=1;jettySize=auto;html=1;" edge="1" parent="1" source="fuZp-VxLnqiwLf1VORub-5" target="fuZp-VxLnqiwLf1VORub-1">
          <mxGeometry relative="1" as="geometry" />
        </mxCell>
        <mxCell id="fuZp-VxLnqiwLf1VORub-5" value="&lt;div&gt;User&lt;/div&gt;" style="shape=umlActor;verticalLabelPosition=bottom;verticalAlign=top;html=1;outlineConnect=0;" vertex="1" parent="1">
          <mxGeometry x="750" y="740" width="30" height="60" as="geometry" />
        </mxCell>
        <mxCell id="fuZp-VxLnqiwLf1VORub-6" value="&lt;div&gt;User flight details database&lt;/div&gt;&lt;div&gt;- First name&lt;/div&gt;&lt;div&gt;- Last name&lt;/div&gt;&lt;div&gt;- Confirmation number&lt;/div&gt;&lt;div&gt;- Flight time&lt;br&gt;&lt;/div&gt;" style="shape=cylinder3;whiteSpace=wrap;html=1;boundedLbl=1;backgroundOutline=1;size=15;" vertex="1" parent="1">
          <mxGeometry x="70" y="760" width="140" height="150" as="geometry" />
        </mxCell>
        <mxCell id="fuZp-VxLnqiwLf1VORub-7" value="Southwest Airlines Flight Check-In API" style="rounded=1;whiteSpace=wrap;html=1;" vertex="1" parent="1">
          <mxGeometry x="660" y="150" width="120" height="60" as="geometry" />
        </mxCell>
        <mxCell id="fuZp-VxLnqiwLf1VORub-15" style="edgeStyle=orthogonalEdgeStyle;rounded=0;orthogonalLoop=1;jettySize=auto;html=1;entryX=0;entryY=0.5;entryDx=0;entryDy=0;" edge="1" parent="1" source="fuZp-VxLnqiwLf1VORub-13" target="fuZp-VxLnqiwLf1VORub-7">
          <mxGeometry relative="1" as="geometry" />
        </mxCell>
        <mxCell id="fuZp-VxLnqiwLf1VORub-32" style="edgeStyle=orthogonalEdgeStyle;rounded=0;orthogonalLoop=1;jettySize=auto;html=1;" edge="1" parent="1" source="fuZp-VxLnqiwLf1VORub-13" target="fuZp-VxLnqiwLf1VORub-6">
          <mxGeometry relative="1" as="geometry">
            <Array as="points">
              <mxPoint x="470" y="70" />
              <mxPoint x="40" y="70" />
              <mxPoint x="40" y="835" />
            </Array>
          </mxGeometry>
        </mxCell>
        <mxCell id="fuZp-VxLnqiwLf1VORub-13" value="&lt;div&gt;Flight check-in service&lt;/div&gt;&lt;div&gt;- Send HTTP POST request to check-in with query parameters:&lt;/div&gt;&lt;div&gt;- first name&lt;/div&gt;&lt;div&gt;- last name&lt;/div&gt;&lt;div&gt;- confirmation number&lt;/div&gt;&lt;div&gt;- Then writes to DB that a check-in was successful&lt;br&gt;&lt;/div&gt;" style="rounded=1;whiteSpace=wrap;html=1;" vertex="1" parent="1">
          <mxGeometry x="370" y="110" width="200" height="140" as="geometry" />
        </mxCell>
        <mxCell id="fuZp-VxLnqiwLf1VORub-17" style="edgeStyle=orthogonalEdgeStyle;rounded=0;orthogonalLoop=1;jettySize=auto;html=1;entryX=0;entryY=0.5;entryDx=0;entryDy=0;" edge="1" parent="1" source="fuZp-VxLnqiwLf1VORub-16" target="fuZp-VxLnqiwLf1VORub-13">
          <mxGeometry relative="1" as="geometry" />
        </mxCell>
        <mxCell id="fuZp-VxLnqiwLf1VORub-16" value="&lt;div&gt;Job scheduler&lt;/div&gt;&lt;div&gt;- Kicks off flight check-in service at a given time&lt;br&gt;&lt;/div&gt;" style="rounded=1;whiteSpace=wrap;html=1;" vertex="1" parent="1">
          <mxGeometry x="110" y="145" width="140" height="70" as="geometry" />
        </mxCell>
        <mxCell id="fuZp-VxLnqiwLf1VORub-24" style="edgeStyle=orthogonalEdgeStyle;rounded=0;orthogonalLoop=1;jettySize=auto;html=1;" edge="1" parent="1" source="fuZp-VxLnqiwLf1VORub-22" target="fuZp-VxLnqiwLf1VORub-16">
          <mxGeometry relative="1" as="geometry" />
        </mxCell>
        <mxCell id="fuZp-VxLnqiwLf1VORub-22" value="&lt;div&gt;Check-in Message Queue&lt;/div&gt;&lt;div&gt;- Flight Time&lt;/div&gt;&lt;div&gt;- First Name&lt;/div&gt;&lt;div&gt;- Last Name&lt;br&gt;&lt;/div&gt;&lt;div&gt;- Confirmation Code&lt;br&gt;&lt;/div&gt;" style="shape=process;whiteSpace=wrap;html=1;backgroundOutline=1;" vertex="1" parent="1">
          <mxGeometry x="90" y="355" width="180" height="90" as="geometry" />
        </mxCell>
        <mxCell id="fuZp-VxLnqiwLf1VORub-25" value="&lt;div&gt;Flight information collector message queue&lt;/div&gt;&lt;div&gt;- First Name&lt;/div&gt;&lt;div&gt;- Last Name&lt;br&gt;&lt;/div&gt;&lt;div&gt;- Confirmation Code&lt;br&gt;&lt;/div&gt;" style="shape=process;whiteSpace=wrap;html=1;backgroundOutline=1;" vertex="1" parent="1">
          <mxGeometry x="90" y="540" width="180" height="90" as="geometry" />
        </mxCell>
        <mxCell id="fuZp-VxLnqiwLf1VORub-31" style="edgeStyle=orthogonalEdgeStyle;rounded=0;orthogonalLoop=1;jettySize=auto;html=1;entryX=0.5;entryY=1;entryDx=0;entryDy=0;entryPerimeter=0;" edge="1" parent="1" source="fuZp-VxLnqiwLf1VORub-29" target="fuZp-VxLnqiwLf1VORub-6">
          <mxGeometry relative="1" as="geometry" />
        </mxCell>
        <mxCell id="fuZp-VxLnqiwLf1VORub-29" value="&lt;div&gt;DB Caching layer&lt;/div&gt;&lt;div&gt;- LRU cache&lt;/div&gt;&lt;div&gt;- Key is DB query&lt;/div&gt;&lt;div&gt;- Value is DB result&lt;/div&gt;&lt;div&gt;- This avoids high traffic from hitting the DB&lt;br&gt;&lt;/div&gt;" style="rounded=1;whiteSpace=wrap;html=1;" vertex="1" parent="1">
          <mxGeometry x="250" y="870" width="190" height="120" as="geometry" />
        </mxCell>
      </root>
    </mxGraphModel>
  </diagram>
</mxfile>
